<?xml version="1.0" encoding="iso-8859-1"?>
<!-- Generator: Adobe Illustrator 18.0.0, SVG Export Plug-In . SVG Version: 6.00 Build 0)  -->
<!DOCTYPE svg PUBLIC "-//W3C//DTD SVG 1.1//EN" "http://www.w3.org/Graphics/SVG/1.1/DTD/svg11.dtd">
<svg version="1.1" id="Capa_1" xmlns="http://www.w3.org/2000/svg" xmlns:xlink="http://www.w3.org/1999/xlink" x="0px" y="0px"
	 viewBox="0 0 297.391 297.391" style="enable-background:new 0 0 297.391 297.391;" xml:space="preserve">
<g>
	<path d="M134.342,260.156c-3.231-13.083-4.897-26.503-4.964-39.979l-0.208-41.787c-0.016-3.273-1.102-6.452-3.093-9.05
		l-30.405-39.673c-4.913-6.411-14.067-8.15-20.701-3.544c-7.083,4.919-8.551,14.692-3.367,21.457l18.207,23.756
		c2.974,3.88,4.134,8.852,3.186,13.647v0c-0.856,4.329-6.099,6.078-9.383,3.132L48.962,157.03
		c-6.971-6.254-10.731-15.331-10.226-24.683l3.656-67.643c0.447-8.272-5.897-15.341-14.169-15.788
		c-8.275-0.444-15.34,5.897-15.788,14.169L7.06,162.54c-0.179,3.331,0.756,6.626,2.659,9.366l49.991,71.979
		c6.412,9.232,11.08,19.559,13.774,30.471l2.852,11.549c1.666,6.745,7.718,11.485,14.666,11.485h32.896
		c3.503,0,6.969-1.068,9.712-3.247c4.737-3.765,6.698-9.828,5.302-15.48L134.342,260.156z"/>
	<path d="M163.049,260.156c3.231-13.083,4.897-26.503,4.964-39.979l0.208-41.787c0.016-3.273,1.102-6.452,3.094-9.05l30.405-39.673
		c4.913-6.411,14.067-8.15,20.702-3.544c7.083,4.919,8.551,14.692,3.367,21.457l-18.207,23.756
		c-2.974,3.88-4.134,8.852-3.185,13.647v0c0.856,4.329,6.099,6.078,9.383,3.132l34.649-31.087
		c6.971-6.254,10.731-15.331,10.226-24.683l-3.656-67.643c-0.447-8.272,5.897-15.341,14.169-15.788
		c8.275-0.444,15.34,5.897,15.788,14.169l5.375,99.455c0.179,3.331-0.756,6.626-2.659,9.366l-49.991,71.979
		c-6.412,9.232-11.08,19.559-13.775,30.471l-2.852,11.549c-1.666,6.745-7.718,11.485-14.666,11.485h-32.896
		c-3.503,0-6.969-1.068-9.712-3.247c-4.737-3.765-6.698-9.828-5.302-15.48L163.049,260.156z"/>
	<path d="M175.862,109.255l28.202-59.636c3.541-7.489,0.341-16.432-7.147-19.974L137.281,1.444
		c-7.49-3.542-16.432-0.342-19.974,7.147L89.105,68.227c-3.541,7.489-0.341,16.432,7.148,19.974l59.636,28.202
		c2.072,0.98,4.254,1.443,6.403,1.443C167.911,117.846,173.299,114.672,175.862,109.255z"/>
</g>
<g>
</g>
<g>
</g>
<g>
</g>
<g>
</g>
<g>
</g>
<g>
</g>
<g>
</g>
<g>
</g>
<g>
</g>
<g>
</g>
<g>
</g>
<g>
</g>
<g>
</g>
<g>
</g>
<g>
</g>
</svg>
